
<svg xmlns="http://www.w3.org/2000/svg"  width="17" height="16">
    <symbol id="icon-close" width="17" height="16" viewBox="0 0 17 16" fill="none" xmlns="http://www.w3.org/2000/svg">
        <path d="M3.63501 2.66666L14.3132 13.3333" stroke="black" stroke-width="1.5" stroke-linecap="round"/>
        <path d="M3.63501 13.3333L14.3132 2.66666" stroke="black" stroke-width="1.5" stroke-linecap="round"/>
    </symbol>
    <symbol id="icon-reset" width="16" height="16" viewBox="0 0 16 16" fill="none" xmlns="http://www.w3.org/2000/svg">
        <path d="M7.83444 6.89254L7.73662 7.38288L7.83444 6.89254ZM8.63499 7.36995C8.49692 7.6091 8.57886 7.9149 8.818 8.05297C9.05715 8.19104 9.36294 8.1091 9.50102 7.86995L8.63499 7.36995ZM1.8693 10.6188L1.5618 10.2245C1.43068 10.3268 1.35898 10.4876 1.37051 10.6535C1.38204 10.8194 1.47529 10.9687 1.6193 11.0518L1.8693 10.6188ZM8.79751 14.6188L8.54751 15.0518C8.69152 15.135 8.86745 15.1411 9.01688 15.0681C9.16631 14.9951 9.26969 14.8527 9.2927 14.688L8.79751 14.6188ZM4.98025 8.43048L9.13717 10.8305L9.63717 9.96445L5.48025 7.56445L4.98025 8.43048ZM9.85575 10.5719C10.0181 10.1358 10.1588 9.43855 10.0603 8.72143C9.95966 7.98829 9.60139 7.20673 8.7439 6.71165L8.2439 7.57768C8.77204 7.8826 9.00022 8.35197 9.06965 8.8575C9.14128 9.37904 9.0358 9.90823 8.9186 10.223L9.85575 10.5719ZM8.7439 6.71165C8.47606 6.55701 8.2038 6.45638 7.93226 6.4022L7.73662 7.38288C7.89923 7.41532 8.06889 7.47663 8.2439 7.57768L8.7439 6.71165ZM7.93226 6.4022C7.21584 6.25928 6.5537 6.44761 6.03196 6.72276C5.51217 6.99689 5.09633 7.37471 4.84488 7.6789L5.61563 8.31603C5.79313 8.10131 6.10871 7.81283 6.49844 7.60729C6.88622 7.40279 7.3117 7.29811 7.73662 7.38288L7.93226 6.4022ZM8.26745 7.14254L10.1009 3.96688L9.2349 3.46688L7.40143 6.64254L8.26745 7.14254ZM10.1009 3.96688C10.1231 3.92853 10.1471 3.8827 10.162 3.85493C10.1798 3.8218 10.1942 3.79594 10.2084 3.77307C10.2386 3.72449 10.2529 3.71496 10.2493 3.71751C10.2455 3.72025 10.2374 3.725 10.2264 3.72832C10.2152 3.73169 10.2094 3.73104 10.213 3.73122C10.2237 3.73174 10.2863 3.73891 10.4167 3.81421L10.9167 2.94818C10.7007 2.82348 10.4822 2.7432 10.2619 2.73242C10.0291 2.72101 9.8283 2.78918 9.66756 2.90415C9.51787 3.01121 9.42083 3.1459 9.35929 3.24482C9.32764 3.2957 9.30105 3.3444 9.28083 3.38209C9.25772 3.42515 9.24671 3.44642 9.2349 3.46688L10.1009 3.96688ZM10.4167 3.81421C10.5596 3.89666 10.6138 3.95251 10.6299 3.97327C10.6375 3.98304 10.621 3.96183 10.6213 3.92409C10.6215 3.90175 10.6284 3.90679 10.6019 3.96087C10.5895 3.98618 10.5733 4.01558 10.5509 4.05391C10.5355 4.08043 10.4969 4.14499 10.475 4.18288L11.3411 4.68288C11.3759 4.62263 11.4495 4.50391 11.5003 4.40006C11.5554 4.28738 11.6195 4.12588 11.6213 3.93338C11.6254 3.48676 11.3128 3.17684 10.9167 2.94818L10.4167 3.81421ZM10.475 4.18288L8.63499 7.36995L9.50102 7.86995L11.3411 4.68288L10.475 4.18288ZM4.92275 7.6032L1.5618 10.2245L2.1768 11.0131L5.53775 8.39173L4.92275 7.6032ZM9.2927 14.688L9.88237 10.4666L8.89198 10.3283L8.30231 14.5496L9.2927 14.688ZM1.6193 11.0518L3.35135 12.0518L3.85135 11.1858L2.1193 10.1858L1.6193 11.0518ZM3.35135 12.0518L5.0834 13.0518L5.5834 12.1858L3.85135 11.1858L3.35135 12.0518ZM5.0834 13.0518L6.81546 14.0518L7.31546 13.1858L5.5834 12.1858L5.0834 13.0518ZM6.81546 14.0518L8.54751 15.0518L9.04751 14.1858L7.31546 13.1858L6.81546 14.0518Z" fill="#4F4F4F"/>
        <path d="M3.76798 11.3301L5.17867 10.2201" stroke="#4F4F4F" stroke-linecap="round"/>
        <path d="M7.23205 13.3301L7.48804 11.5534" stroke="#4F4F4F" stroke-linecap="round"/>
        <path d="M5.5 12.3301L6 11.4641" stroke="#4F4F4F" stroke-linecap="round"/>
    </symbol>
    <symbol id="icon-search" width="24" height="24" viewBox="0 0 24 24" fill="none" xmlns="http://www.w3.org/2000/svg">
        <path d="M16.5 15.5L20 19" stroke="#9EAAB4" stroke-width="1.5" stroke-linecap="round" stroke-linejoin="round"/>
        <path d="M6 11C6 14.3137 8.68629 17 12 17C13.6597 17 15.1621 16.3261 16.2483 15.237C17.3308 14.1517 18 12.654 18 11C18 7.68629 15.3137 5 12 5C8.68629 5 6 7.68629 6 11Z" stroke="#9EAAB4" stroke-width="1.5" stroke-linecap="round" stroke-linejoin="round"/>
    </symbol>
</svg>



